<svg width="90" height="36" viewBox="0 0 90 36" fill="none" xmlns="http://www.w3.org/2000/svg">
<rect width="89.6343" height="35.1619" fill="#C20000"/>
<path d="M38.3765 24.5811V10.0356H41.4518V22.0455H47.6876V24.5811H38.3765ZM52.7994 10.0356V24.5811H49.7242V10.0356H52.7994ZM57.9575 10.0356L61.4731 21.0867H61.608L65.1308 10.0356H68.5399L63.5257 24.5811H59.5626L54.5413 10.0356H57.9575ZM70.2906 24.5811V10.0356H80.0917V12.5711H73.3659V16.037H79.5874V18.5725H73.3659V22.0455H80.1201V24.5811H70.2906Z" fill="white"/>
<path fill-rule="evenodd" clip-rule="evenodd" d="M11.6724 9.72227C12.1279 9.35191 12.7929 9.51411 13.0835 10.0237C13.3498 10.4887 13.2051 11.0739 12.7997 11.4227C11.9105 12.1833 11.1969 13.1278 10.708 14.191C10.2191 15.2541 9.96662 16.4107 9.96792 17.5808C9.96689 18.7509 10.2195 19.9074 10.7084 20.9705C11.1972 22.0336 11.9107 22.9781 12.7997 23.739C13.2051 24.0877 13.3498 24.6716 13.0835 25.1379C12.7929 25.6475 12.1279 25.8097 11.6724 25.4394C10.505 24.4895 9.5642 23.2912 8.91859 21.9317C8.27299 20.5722 7.93882 19.0858 7.94044 17.5808C7.93882 16.0758 8.27299 14.5894 8.91859 13.2299C9.5642 11.8704 10.505 10.6721 11.6724 9.72227ZM23.0723 10.0237C22.806 10.4887 22.9506 11.0739 23.3561 11.4227C24.2454 12.1833 24.959 13.1278 25.4479 14.1909C25.9368 15.2541 26.1892 16.4106 26.1878 17.5808C26.1892 18.751 25.9368 19.9075 25.4479 20.9707C24.959 22.0339 24.2454 22.9783 23.3561 23.739C22.9506 24.0877 22.806 24.6716 23.0723 25.1379C23.3629 25.6475 24.0279 25.8097 24.4834 25.4394C25.6508 24.4895 26.5916 23.2912 27.2372 21.9317C27.8828 20.5722 28.2169 19.0858 28.2153 17.5808C28.2169 16.0758 27.8828 14.5894 27.2372 13.2299C26.5916 11.8704 25.6508 10.6721 24.4834 9.72227C24.0279 9.35191 23.3629 9.51411 23.0723 10.0237ZM13.6972 13.3609C14.1229 12.9189 14.8285 13.0771 15.1326 13.6096C15.3894 14.0557 15.2637 14.6153 14.938 15.0154C14.3451 15.7388 14.0217 16.6455 14.0229 17.5808C14.0229 18.554 14.3662 19.4475 14.938 20.1476C15.2637 20.5464 15.3881 21.1046 15.1326 21.5533C14.8285 22.0845 14.1229 22.2427 13.6972 21.8007C12.6035 20.6684 11.9932 19.155 11.9954 17.5808C11.9954 15.9413 12.6442 14.4544 13.6985 13.3609H13.6972ZM21.0231 13.6096C20.7663 14.0557 20.8907 14.6153 21.2178 15.0154C21.7895 15.7128 22.1329 16.6076 22.1329 17.5808C22.1329 18.554 21.7895 19.4475 21.2178 20.1476C20.8907 20.5464 20.7677 21.1046 21.0231 21.5533C21.3273 22.0845 22.0328 22.2427 22.4586 21.8007C23.5524 20.6685 24.1627 19.1551 24.1603 17.5808C24.1603 15.9413 23.5116 14.4544 22.4573 13.3609C22.0328 12.9189 21.3273 13.0771 21.0231 13.6096ZM18.0779 19.6083C18.6156 19.6083 19.1313 19.3947 19.5115 19.0145C19.8918 18.6342 20.1054 18.1185 20.1054 17.5808C20.1054 17.0431 19.8918 16.5274 19.5115 16.1472C19.1313 15.7669 18.6156 15.5533 18.0779 15.5533C17.5402 15.5533 17.0245 15.7669 16.6442 16.1472C16.264 16.5274 16.0504 17.0431 16.0504 17.5808C16.0504 18.1185 16.264 18.6342 16.6442 19.0145C17.0245 19.3947 17.5402 19.6083 18.0779 19.6083Z" fill="white"/>
</svg>
