<svg width="20" height="20" viewBox="0 0 20 20" fill="none" xmlns="http://www.w3.org/2000/svg">
<g clip-path="url(#clip0_4488_3844)">
<path d="M19.7551 18.5772C20.0809 18.903 20.0809 19.4297 19.7551 19.7555C19.5926 19.918 19.3792 19.9997 19.1659 19.9997C18.9526 19.9997 18.7392 19.918 18.5767 19.7555L0.243398 1.42216C-0.0824349 1.09633 -0.0824349 0.569659 0.243398 0.243826C0.569232 -0.0820077 1.0959 -0.0820077 1.42173 0.243826L5.2784 4.10049C6.78423 2.05049 9.03173 0.630492 11.5226 0.172159C11.7626 0.125492 12.0167 0.192992 12.2059 0.351326C12.3967 0.509659 12.5059 0.744659 12.5059 0.992159V11.3288L13.9126 12.7355C15.4176 11.2213 15.4151 8.76633 13.9042 7.25549C13.5784 6.92966 13.5784 6.40299 13.9042 6.07716C14.2301 5.75133 14.7567 5.75133 15.0826 6.07716C17.2426 8.23716 17.2459 11.7505 15.0909 13.9138L16.2909 15.1138C19.0542 12.213 19.0126 7.60466 16.1642 4.75549C15.8384 4.42966 15.8384 3.90299 16.1642 3.57716C16.4901 3.25133 17.0167 3.25133 17.3426 3.57716C20.8409 7.07549 20.8834 12.7413 17.4692 16.2922L19.7542 18.5772H19.7551ZM0.00673176 8.33299V11.6663C0.00673176 13.9638 1.8759 15.833 4.1734 15.833H5.2309C6.73673 17.918 9.0059 19.3638 11.5234 19.8272C11.5734 19.8363 11.6234 19.8413 11.6742 19.8413C11.8676 19.8413 12.0567 19.7738 12.2076 19.6488C12.3984 19.4905 12.5076 19.2555 12.5076 19.008V16.0255L1.56673 5.08549C0.615898 5.84966 0.00673176 7.02133 0.00673176 8.33299Z" fill="white"/>
</g>
<defs>
<clipPath id="clip0_4488_3844">
<rect width="20" height="20" fill="white"/>
</clipPath>
</defs>
</svg>
